<svg width="23" height="26" viewBox="0 0 23 26" fill="none" xmlns="http://www.w3.org/2000/svg">
<path d="M9.91779 13.4013C9.91779 14.1264 10.5559 14.5616 11.4552 14.5616C12.7025 14.5616 13.7177 13.6913 13.7177 12.444V12.328H11.4262C10.4689 12.328 9.91779 12.6761 9.91779 13.4013Z" fill="#833AE0"/>
<path d="M20.3023 0H3.33315C1.85379 0 0.66449 1.18929 0.66449 2.66866V19.6379C0.66449 21.1172 1.85379 22.3065 3.33315 22.3065H7.80026C8.17735 22.3065 8.49642 22.4516 8.75749 22.7126L10.875 24.5981C11.1071 24.8301 11.4552 25.0042 11.8322 25.0042C12.2093 25.0042 12.5284 24.8591 12.7895 24.5981L14.907 22.7126C15.1391 22.4806 15.4872 22.3065 15.8642 22.3065H20.3314C21.8107 22.3065 23 21.1172 23 19.6379V2.66866C22.971 1.18929 21.7817 0 20.3023 0ZM16.6474 16.4761H13.9498V15.4318C13.1956 16.244 12.0643 16.7371 10.672 16.7371C8.32238 16.7371 6.95905 15.3448 6.95905 13.5173C6.95905 11.5739 8.55444 10.3846 11.0201 10.3846H13.7177V9.92045C13.7177 8.76017 13.0506 8.03499 11.7162 8.03499C10.5559 8.03499 9.77275 8.58612 8.87352 9.51435L7.36515 7.71591C8.61246 6.20754 10.1498 5.51136 12.0353 5.51136C14.762 5.51136 16.6184 7.04874 16.6184 10.0945V16.4761H16.6474Z" fill="#833AE0"/>
</svg>